<svg xmlns="http://www.w3.org/2000/svg" width="327" height="199.831" viewBox="0 0 327 199.831">
  <g id="illustration" transform="translate(-445.26 -361.611)">
    <path id="shape" d="M513.2,441.611c1.78-2.2,4.383-3.206,6.869-3.965a67.007,67.007,0,0,0,20.217-9.9,44.858,44.858,0,0,0,14.607-17.322c1.567-3.371,2.289-7.019,3.414-10.535a44.8,44.8,0,0,1,8.881-15.906,76.722,76.722,0,0,1,14.207-12.719,52.576,52.576,0,0,1,15.8-7.322,63.319,63.319,0,0,1,16.093-2.311,98.554,98.554,0,0,1,14.341.793,68.548,68.548,0,0,1,14.933,3.762,63.185,63.185,0,0,1,14.406,7.258A60.738,60.738,0,0,1,668.283,384.1a45.239,45.239,0,0,0,17.508,12.549,51.494,51.494,0,0,0,21.517,3.658c4.511-.163,9.017-.819,13.522-.782a42.921,42.921,0,0,1,21.657,5.977c7.158,4.187,12.752,10.011,17.806,16.426a75.6,75.6,0,0,1,8.422,13.412l-7.595,7.483c-.3.1-.385.267-.179.534l.017.663c-.419.923-.018,1.912-.242,2.888-1.13-1.476-2.1-.076-3.137.161a58.848,58.848,0,0,0-2.745,5.945c-2.967,6.775-4.19,13.716-2.262,21.022a10.334,10.334,0,0,1,.792,3.667c-.537-.218-1.088-.406-1.609-.658-5.839-2.822-11.7-3.42-17.609-.21-.163-.834-1.24-.508-1.518-1.2,1.317-4.147,2.788-8.254,3.287-12.614.034-.03.1-.061.1-.088a1.245,1.245,0,0,0-.055-.236l.023-.5c.719-.336.638-1.091.719-1.651a30.039,30.039,0,0,0-1.632-14.608c-2.381-6.605-7.118-11-13.349-13.963-.655-.311-.723-.092-.8.469a8.672,8.672,0,0,1-.689,2.956c-.631-.972-1.082-1.783-1.644-2.507-1.327-1.707-2.235-3.792-4.31-4.836a130.975,130.975,0,0,0-13.561-5.751,5.648,5.648,0,0,1-.972-.3c-1.1-.561-1.548.011-1.618.985a13.435,13.435,0,0,0,1.334,7.9c1.465,2.6,3.757,4.525,5.357,7-6.192-1.55-12.4-2.994-18.7-4.052-8.953-1.5-17.965-2.43-27.015-3.038a19.758,19.758,0,0,0-3.367-12.463,14.2,14.2,0,0,0-6.586-5.6c-5.59-2.135-10.622-.785-14.958,2.987-4.363,3.795-6.5,8.576-5.157,14.5-.08.42-.37.494-.749.519-1.265.087-2.526.232-3.792.307a237.817,237.817,0,0,0-25.7,3.109,184.4,184.4,0,0,0-19.634,4.613c-.074-1.166-.212-2.332-.21-3.5.011-5.9-.2-11.791-.423-17.684-.036-.953-.192-1.2-1.148-.762a86.55,86.55,0,0,0-18.647,11.413c-.451.366-.945.715-.983,1.38a3.289,3.289,0,0,0-2,1.29,42.086,42.086,0,0,0-6.351,6.662,32.129,32.129,0,0,0-7.207,16.378c-1.013,8.348,1.192,15.53,7.351,21.384a39.555,39.555,0,0,0-4.44-.627,22.492,22.492,0,0,0-11.369,2.97c-.421-1.242-1.218-2.425-.593-3.828a23.6,23.6,0,0,0,.166-9.987C530.78,452.755,524.6,444.781,513.2,441.611Z" transform="translate(-36.985)" fill="#ceeaea"/>
    <path id="shape-2" data-name="shape" d="M547.621,612.771a22.492,22.492,0,0,1,11.369-2.97,39.541,39.541,0,0,1,4.44.627,14.225,14.225,0,0,1,5.256,3.547c2.419,4.349,2.093,9.066,1.683,13.737-.386,4.39-1.02,8.758-.729,13.182a47.024,47.024,0,0,0-5,1.983,8,8,0,0,0-3.842,4.415c-1.6,4.813,1.333,11.264,4.465,13.877a23.744,23.744,0,0,0,10.313,4.6c9.5,2.159,19.2,2.438,28.867,2.87,6.963.311,13.935.485,20.9.579,7.7.1,15.4.344,23.1.6,11.854.39,23.7-.329,35.544-.526,5.995-.1,11.985-.4,17.976-.5,9.506-.149,18.988-.59,28.441-1.579a53.475,53.475,0,0,0,13.667-2.932,15.038,15.038,0,0,0,9.951-11.338c1.067-4.8-.638-8.412-5.036-10.6-1.273-.634-2.667-.894-3.961-1.446-.011-1.7.073-3.412-.053-5.106-.3-4.011-.727-8.011-1.047-12.021a18.61,18.61,0,0,1,1.449-8.8l2.347-2.774c.19-.015.365-.046.314-.307l0,.038c5.909-3.211,11.77-2.613,17.609.209.521.252,1.072.441,1.609.658l.43.319a21.7,21.7,0,0,1,5.81,7.382l.463,1.036a40.313,40.313,0,0,1,1.315,19.656c-.4,2.446-.965,4.865-1.456,7.3-.092.11-.237.207-.268.332a48.011,48.011,0,0,1-4.712,11.6c-3.871,7.009-8.98,12.792-16.395,16.235a1.171,1.171,0,0,0-.8,1.19c-.119,2.9-.276,5.8-.642,8.693-.311,2.46-1.108,4.824-1.258,7.3-.639.564-.65,1.468-1.161,2.115-.631.8-1.21.8-1.62-.107-.591-1.307-1.07-2.663-1.6-4-1.011-3.721-2.512-7.267-3.848-10.874a1.412,1.412,0,0,0-1.8-1.1,152.126,152.126,0,0,1-22.968.4c-13.415-.493-26.829-1.088-40.252-1.265q-39.916-.527-79.8,1.281a168.981,168.981,0,0,1-20.055-.148c-.539-.04-1.146-.289-1.441.544-1.591,4.5-3.487,8.887-4.7,13.514-.24.474-.476.95-.721,1.422-.6,1.156-1.053,1.213-1.791.146a19.184,19.184,0,0,1-1.03-1.9,94.033,94.033,0,0,1-2.069-15.415c-.027-.638-.487-.763-.946-.944a33.42,33.42,0,0,1-15.171-12.325,53.432,53.432,0,0,1-7.973-16.782c-2.045-7.779-2.847-15.62-1.2-23.586l.235-.883c1.282-4.194,3.314-7.9,6.93-10.561Z" transform="translate(-50.881 -135.088)" fill="#272453"/>
    <path id="shape-3" data-name="shape" d="M608.484,776.782c1.217-4.627,3.113-9.017,4.7-13.514.295-.833.9-.584,1.441-.544a168.981,168.981,0,0,0,20.055.148q39.883-1.769,79.8-1.281c13.423.177,26.837.772,40.252,1.265a152.149,152.149,0,0,0,22.968-.4,1.411,1.411,0,0,1,1.8,1.1c1.336,3.607,2.836,7.153,3.848,10.874a29.143,29.143,0,0,1-8.375,1.734c-7.157.747-14.335,1.069-21.532,1.295-6.194.195-12.387.261-18.567.1-3.6-.093-7.211,0-10.806-.226-6.6-.407-13.2-.7-19.816-.923-13.27-.455-26.537-.2-39.8-.152-5.342.02-10.7.29-16.042.54-6.371.3-12.748.384-19.117.641-3.215.13-6.428.218-9.636.172A61.4,61.4,0,0,1,608.484,776.782Z" transform="translate(-88.858 -217.683)" fill="#cee9ea"/>
    <path id="shape-4" data-name="shape" d="M1038.71,547.48l-.43-.318a10.348,10.348,0,0,0-.792-3.667c-1.928-7.306-.705-14.247,2.261-21.022a58.771,58.771,0,0,1,2.745-5.945c1.105-.46.934.6,1.093,1.032.893,2.459,1.7,4.948,2.539,7.427l.375-.081q-.315-5.713-.628-11.427-.008-.332-.017-.663l.178-.535,7.594-7.483q7.332-6.512,14.665-13.023c.839-.745,1.7-1.467,2.533-2.217.438-.395.728-.617.985.192a92.612,92.612,0,0,1,4.488,22.018,1.507,1.507,0,0,1-.711,1.334,37.707,37.707,0,0,0-4.477,4.3c1.481-.559,2.978-1.083,4.437-1.693.749-.313.936-.12.923.634-.137,7.762-1.325,15.253-5.57,21.976a29.284,29.284,0,0,1-4.1,4.942,22.1,22.1,0,0,0-11.868,3.3c-2.025,1.154-3.871,2.559-5.828,3.8a32.108,32.108,0,0,1-9.134-2.737A1.616,1.616,0,0,0,1038.71,547.48Z" transform="translate(-321.898 -69.46)" fill="#ed3e75"/>
    <path id="shape-5" data-name="shape" d="M506.129,637.156c-1.648,7.966-.846,15.807,1.2,23.586-.681.1-1.21.117-1.164,1.179.3,6.908.817,13.8,1.724,20.649.657,4.963,1.463,9.907,2.2,14.86a2.217,2.217,0,0,1-1.791-.455c-2.59-2.2-5.31-4.247-7.815-6.558a73.349,73.349,0,0,1-8.991-9.919,77.22,77.22,0,0,1-14.029-40.555c-.03-1.976-.2-3.961-.233-5.946a2.7,2.7,0,0,1,.285-1.557,4.2,4.2,0,0,1,.446.366c5.261,5.664,12.839,7.486,19.813,4.025C500.947,635.256,503.416,634.961,506.129,637.156Z" transform="translate(-17.402 -147.438)" fill="#cee9ea"/>
    <path id="shape-6" data-name="shape" d="M1001.9,740.021c.15-2.478.947-4.842,1.258-7.3.366-2.893.523-5.791.642-8.693a1.171,1.171,0,0,1,.8-1.19c7.415-3.443,12.523-9.225,16.395-16.235a48.012,48.012,0,0,0,4.712-11.6c.031-.125.176-.222.268-.332a5,5,0,0,0,.726-.01c1.445-.222,1.852.225,1.678,1.789-.433,3.892-.607,7.813-.886,11.723q-1.546,15.207-4.434,30.215c-.129.67-.225,1.148-1.072,1.276C1015.3,740.68,1008.617,741.174,1001.9,740.021Z" transform="translate(-303.03 -181.282)" fill="#504e91"/>
    <path id="shape-7" data-name="shape" d="M544.663,731.246c-.739-4.953-1.545-9.9-2.2-14.86-.907-6.853-1.424-13.742-1.724-20.65-.046-1.062.483-1.078,1.164-1.179a53.432,53.432,0,0,0,7.973,16.782,33.42,33.42,0,0,0,15.171,12.325c.458.181.919.306.946.944a94.033,94.033,0,0,0,2.069,15.415,69.43,69.43,0,0,1-20.046-.252,1.915,1.915,0,0,1-1.9-1.848C545.746,735.679,545.158,733.469,544.663,731.246Z" transform="translate(-51.976 -181.253)" fill="#504e91"/>
    <path id="shape-8" data-name="shape" d="M478.939,535.519c11.406,3.17,17.582,11.144,20.1,22.257a23.61,23.61,0,0,1-.166,9.987c-.792-.1-.733-.86-.923-1.338a31.064,31.064,0,0,0-2.883-6.327c-1.487-2.17-2.923-4.347-5.219-5.789a43.394,43.394,0,0,0-9.3-4.5,121.321,121.321,0,0,1-12.815-5.144c-4.043-1.887-7.983-4.012-11.862-6.221a22.957,22.957,0,0,1-5.608-4.012,102.865,102.865,0,0,1,15.318-.076,4.073,4.073,0,0,1,2.015.751c1.831,1.159,3.691,2.273,5.592,3.436.358-1.061-.212-1.787-.35-2.581-.128-.733.04-1.125.888-1.022C475.463,535.154,477.2,535.329,478.939,535.519Z" transform="translate(-2.726 -93.908)" fill="#88ccd4"/>
    <path id="shape-9" data-name="shape" d="M1056.26,671.158c.278-3.91.453-7.831.886-11.723.173-1.564-.233-2.011-1.678-1.789a4.991,4.991,0,0,1-.726.01c.491-2.431,1.057-4.85,1.456-7.3a40.314,40.314,0,0,0-1.315-19.656,46.993,46.993,0,0,1,4.228-4.09l14.651,5.183a65.794,65.794,0,0,1-2.21,10.525,97.111,97.111,0,0,1-3.984,10.786,105.453,105.453,0,0,1-7.512,13.506c-.7,1.109-1.4,2.223-2.108,3.33C1057.547,670.57,1057.127,671.177,1056.26,671.158Z" transform="translate(-331.797 -144.266)" fill="#cee9ea"/>
    <path id="shape-10" data-name="shape" d="M514.625,591.709c-3.616,2.664-5.648,6.367-6.931,10.561a10.9,10.9,0,0,0-2.775-1.607,5.65,5.65,0,0,1-2.772-2.8,14.659,14.659,0,0,0-4.351-5.611c-2.233-1.635-2.233-1.633-2.583,1.127-.008.061-.122.109-.188.165-.085-.037-.21-.053-.246-.118a1.934,1.934,0,0,1-.292-.663c-.281-2.429-1.866-3.167-4.064-3.439-2.306-.285-2.289-.412-2.491,1.8,0,.052-.14.091-.447.277-.822-3.215-3.748-3.593-6.216-4.631-.538-.227-1.067-.475-1.6-.713a50.8,50.8,0,0,1,1.976-8.739c.7-2.457,1.48-4.892,2.224-7.336a48.726,48.726,0,0,1,5.9,2.874,60.863,60.863,0,0,1,10.3,7.124c3.658,2.889,7.229,5.88,11.046,8.573C512.373,589.442,513.827,590.251,514.625,591.709Z" transform="translate(-18.733 -113.436)" fill="#ceeaea"/>
    <path id="shape-11" data-name="shape" d="M495.892,572.536c-.8-1.459-2.253-2.268-3.512-3.156-3.817-2.693-7.388-5.684-11.046-8.573a60.853,60.853,0,0,0-10.3-7.124,48.718,48.718,0,0,0-5.9-2.874c-3.672-2.021-7.612-3.465-11.377-5.283-3.724-1.8-6.967-4.089-8.159-8.409-.636-2.3-.591-2.44,1.939-2.327a22.966,22.966,0,0,0,5.609,4.012c3.879,2.209,7.819,4.334,11.862,6.221a121.329,121.329,0,0,0,12.815,5.144,43.4,43.4,0,0,1,9.3,4.5c2.3,1.442,3.733,3.619,5.219,5.789a31.064,31.064,0,0,1,2.883,6.328c.19.478.131,1.235.923,1.338-.626,1.4.171,2.586.592,3.828Z" transform="translate(0 -94.263)" fill="#9ee2e5"/>
    <path id="shape-12" data-name="shape" d="M474.3,603.124c.533.238,1.061.487,1.6.713,2.468,1.038,5.394,1.416,6.216,4.631.307-.186.442-.226.447-.277.2-2.213.185-2.086,2.491-1.8,2.2.272,3.783,1.01,4.064,3.439a1.933,1.933,0,0,0,.292.663c.036.065.16.081.246.118.066-.056.18-.1.188-.165.35-2.76.35-2.761,2.583-1.127a14.659,14.659,0,0,1,4.351,5.611,5.649,5.649,0,0,0,2.772,2.8,10.909,10.909,0,0,1,2.775,1.607q-.116.442-.234.883c-2.714-2.194-5.182-1.9-8.356-.323-6.973,3.461-14.552,1.639-19.813-4.025a4.189,4.189,0,0,0-.446-.366,20.53,20.53,0,0,1-3.633-9.725,29.293,29.293,0,0,1,.118-3.786c.032-.714.3-.8.92-.49C472.005,602.078,473.161,602.588,474.3,603.124Z" transform="translate(-13.365 -130.503)" fill="#ed3e75"/>
    <path id="shape-13" data-name="shape" d="M1063.8,614.934c1.957-1.245,3.8-2.65,5.828-3.8a22.105,22.105,0,0,1,11.868-3.3c6.7.948,11.937,4.416,16.412,9.449-.991.56-1.985-.03-3.02.293.993.714,2.073.526,3.032.782a2.584,2.584,0,0,1,1.549.719,50.159,50.159,0,0,1,7.612,12.419,1.086,1.086,0,0,1-1.093-.243,92.423,92.423,0,0,0-8.43-5.382c-4.732-2.75-9.335-5.75-14.453-7.79-4.785-1.908-9.54-3.776-14.911-2.93-1.512.238-2.985.956-4.579.653l-.005-.005-.052-.4Z" transform="translate(-336.599 -134.033)" fill="#f4891d"/>
    <path id="shape-14" data-name="shape" d="M1063.687,624.306c1.594.3,3.067-.415,4.579-.653,5.371-.846,10.126,1.022,14.911,2.93,5.118,2.04,9.72,5.04,14.453,7.79a92.464,92.464,0,0,1,8.43,5.382,1.086,1.086,0,0,0,1.093.243l-.011.032.2.383a15.173,15.173,0,0,1,1.582,2.939c-.869.1-1.266-.4-1.733-.693-8.912-5.58-18.614-9.365-28.563-12.588l-14.65-5.184Z" transform="translate(-336.667 -142.54)" fill="#eb7416"/>
    <path id="shape-15" data-name="shape" d="M1159.267,660.233q-.1-.191-.2-.383Z" transform="translate(-388.589 -162.359)" fill="#f4891d"/>
    <path id="shape-16" data-name="shape" d="M601.142,587.8c-.291-4.424.343-8.792.729-13.182.411-4.671.736-9.388-1.683-13.737a4.509,4.509,0,0,0-.3-2.429c-.972-3.114-2.021-6.2-2.76-9.389a16.078,16.078,0,0,1,4.358-15.854,41.182,41.182,0,0,1,11.273-7.741,123.588,123.588,0,0,1,11.8-4.7,184.414,184.414,0,0,1,19.634-4.614,237.846,237.846,0,0,1,25.7-3.109c1.266-.075,2.527-.22,3.792-.307.379-.025.669-.1.749-.52a7.229,7.229,0,0,1,.389,2.557c.488,3.086.03,5.963-2.706,7.969a19.714,19.714,0,0,0-7.024,10.133,7.466,7.466,0,0,0-.645,3.554,10.46,10.46,0,0,0,2.861,6.23,73.7,73.7,0,0,0-2.8,15.321,20.22,20.22,0,0,0,1.093,8.476,2.757,2.757,0,0,0,3.77,1.733,16.9,16.9,0,0,0,5.68-3.488l.372,1.274.091,2.454c-.4,1.3-.8,2.593-1.193,3.891-1,3.3-3.075,6.034-4.721,8.994a52.711,52.711,0,0,1-5.517-.867,39.927,39.927,0,0,1-6.133-3,38.959,38.959,0,0,0-5.323-2.714c-5.97-2.491-11.25.558-12.156,6.988-.284,2.016.629,3.674,1.457,5.37a.564.564,0,0,1-.622.267,34.512,34.512,0,0,0-5.365-.383c-4.317-.289-8.657-.157-12.991-.3A108.659,108.659,0,0,0,601.142,587.8Z" transform="translate(-82.384 -81.988)" fill="#504e91"/>
    <path id="shape-17" data-name="shape" d="M903.939,562.553a18.605,18.605,0,0,0-1.449,8.8c.319,4.01.748,8.01,1.046,12.021.126,1.694.042,3.4.053,5.105a84.628,84.628,0,0,0-12.147-1.116c-4.321-.142-8.651-.111-12.989.134-5.582.317-11.2-.023-16.787.349.72-1.367,1.582-2.647,1.6-4.314.054-6.882-5.534-10.78-11.862-8.188-4.05,1.659-7.8,3.968-11.91,5.506-1.768.27-3.37,1.214-5.187,1.284-.793-1.881-1.541-3.782-2.394-5.635-.568-1.233-.275-1.856.974-2.434a25.383,25.383,0,0,0,6.4-4.538c3.338-3.063,4.444-6.613,3.063-11.046-1.312-4.213-2.307-8.524-3.442-12.792a12.648,12.648,0,0,0,1.808-9.042,12,12,0,0,0-3.423-6.44c-1.182-1.231-2.368-2.464-3.628-3.613-4.717-4.3-4.281-7.647-2.1-13.124,9.051.609,18.063,1.535,27.015,3.038,6.3,1.058,12.513,2.5,18.7,4.052l9.383,3.172c.445.2.886.4,1.334.589a53.709,53.709,0,0,1,12.121,6.717c3.785,2.93,6.844,6.376,7.821,11.267a7.588,7.588,0,0,0,.5,2.565q-.012.249-.023.5l-.041.323c-.5,4.36-1.97,8.467-3.287,12.614A13.576,13.576,0,0,0,903.939,562.553Z" transform="translate(-209.44 -82.675)" fill="#504e91"/>
    <path id="shape-18" data-name="shape" d="M613.508,504.511a123.594,123.594,0,0,0-11.8,4.7,41.183,41.183,0,0,0-11.273,7.741,16.077,16.077,0,0,0-4.358,15.854c.739,3.186,1.788,6.275,2.76,9.389a4.509,4.509,0,0,1,.3,2.429,14.225,14.225,0,0,0-5.256-3.547c-6.159-5.854-8.364-13.036-7.351-21.384a32.128,32.128,0,0,1,7.207-16.378,42.075,42.075,0,0,1,6.35-6.662l2.141,5.035.371-.1c-.319-2.068.081-4.174-.508-6.229.038-.666.532-1.015.983-1.381a86.552,86.552,0,0,1,18.647-11.413c.956-.437,1.112-.19,1.148.762.223,5.893.435,11.785.423,17.684C613.3,502.178,613.434,503.345,613.508,504.511Z" transform="translate(-71.336 -65.734)" fill="#f4891d"/>
    <path id="shape-19" data-name="shape" d="M785.516,490.688c-2.179,5.476-2.615,8.821,2.1,13.124,1.26,1.149,2.445,2.382,3.628,3.612a12,12,0,0,1,3.423,6.44,12.648,12.648,0,0,1-1.808,9.042c-.863-2.374-1.693-4.761-2.595-7.12-1.507-3.942-3.8-7.117-8.194-8.2a44.07,44.07,0,0,0-5.292-1.032c-1.587-.8-1.864-2.316-2.087-3.857,1.25-2.24,3.269-3.974,4.22-6.415.056-.146.3-.235.477-.316a5.537,5.537,0,0,0,3.03-4.054c.169-.7.44-1.484-.159-2.074-.624-.615-1.267,0-1.9.154-.064.015-.154-.078-.283-.15a15.165,15.165,0,0,0-1.262-8.087c-.422-1.038-.76-.989-1.465-.305a9.507,9.507,0,0,1-3.294,2.118c-1.609.607-3.268.36-4.913.457-3.6.212-6.67,1.395-8.172,5.032-.226.545-.424.756-1.055.609-.774-.18-1.009.338-1.013,1.035a4.867,4.867,0,0,0,1.928,4.372c1.491.929,2.084,2.318,2.923,3.637a14.668,14.668,0,0,0,1.492,1.981c1.532,1.692,1.655,2.335.691,4.353a2.6,2.6,0,0,1-1.816,1.34c-.337.046-.672.116-1.011.133-6.386.325-10.608,3.619-12.976,9.452-.619,1.524-1.209,3.061-1.812,4.592a10.46,10.46,0,0,1-2.861-6.23,7.466,7.466,0,0,1,.645-3.554,19.714,19.714,0,0,1,7.024-10.133c2.736-2.006,3.195-4.882,2.706-7.969a7.229,7.229,0,0,0-.389-2.557c-1.348-5.921.794-10.7,5.156-14.5,4.336-3.772,9.369-5.122,14.958-2.987a14.2,14.2,0,0,1,6.586,5.6A19.758,19.758,0,0,1,785.516,490.688Z" transform="translate(-163.4 -59.886)" fill="#272453"/>
    <path id="shape-20" data-name="shape" d="M960.047,534.734a7.594,7.594,0,0,1-.5-2.565c-.976-4.891-4.035-8.336-7.82-11.267a53.705,53.705,0,0,0-12.121-6.717c-.447-.19-.889-.392-1.333-.589a2.924,2.924,0,0,0-.776-1.53c-2.83-3.5-5.711-6.954-8.445-10.524a28.954,28.954,0,0,1-4.263-6.7,130.957,130.957,0,0,1,13.561,5.751c2.075,1.045,2.983,3.13,4.31,4.836.563.724,1.013,1.534,1.644,2.507a8.673,8.673,0,0,0,.689-2.956c.074-.561.142-.78.8-.469,6.231,2.961,10.968,7.357,13.349,13.963a30.04,30.04,0,0,1,1.631,14.608C960.685,533.643,960.766,534.4,960.047,534.734Z" transform="translate(-261.049 -72.531)" fill="#88ccd4"/>
    <path id="shape-21" data-name="shape" d="M921.6,494.224a28.95,28.95,0,0,0,4.263,6.7c2.734,3.57,5.615,7.028,8.445,10.524a2.925,2.925,0,0,1,.775,1.53L925.7,509.8c-1.6-2.471-3.893-4.393-5.357-7a13.434,13.434,0,0,1-1.334-7.9c.071-.974.521-1.546,1.618-.985A5.649,5.649,0,0,0,921.6,494.224Z" transform="translate(-257.865 -71.911)" fill="#9ee2e5"/>
    <path id="shape-22" data-name="shape" d="M1052.967,542.486q.314,5.713.628,11.427l-.375.081c-.837-2.479-1.646-4.968-2.539-7.427-.159-.437.012-1.492-1.093-1.032,1.039-.236,2.006-1.636,3.136-.161C1052.948,544.4,1052.548,543.409,1052.967,542.486Z" transform="translate(-328.992 -98.467)" fill="#cee9ea"/>
    <path id="shape-23" data-name="shape" d="M608.578,510.9c.589,2.054.188,4.16.508,6.229l-.371.1-2.141-5.035A3.289,3.289,0,0,1,608.578,510.9Z" transform="translate(-87.818 -81.27)" fill="#cee9ea"/>
    <path id="shape-24" data-name="shape" d="M992.308,616.127a13.577,13.577,0,0,1,1.147-4.239c.278.688,1.355.361,1.518,1.2l0-.037-.314.307Z" transform="translate(-297.809 -136.249)" fill="#88ccd4"/>
    <path id="shape-25" data-name="shape" d="M1057.009,539.857l-.178.535C1056.625,540.124,1056.708,539.954,1057.009,539.857Z" transform="translate(-332.873 -97.036)" fill="#cee9ea"/>
    <path id="shape-26" data-name="shape" d="M1002.04,583.816l.041-.323a1.237,1.237,0,0,1,.055.235C1002.138,583.755,1002.074,583.786,1002.04,583.816Z" transform="translate(-303.107 -120.791)" fill="#88ccd4"/>
    <path id="shape-27" data-name="shape" d="M728.943,676c5.593-.372,11.205-.032,16.788-.349,4.338-.246,8.668-.276,12.989-.134a84.629,84.629,0,0,1,12.147,1.116c1.294.553,2.688.813,3.961,1.446,4.4,2.188,6.1,5.8,5.036,10.6a15.038,15.038,0,0,1-9.951,11.338,53.475,53.475,0,0,1-13.667,2.932c-9.453.989-18.935,1.43-28.441,1.579-5.991.094-11.982.4-17.977.5-11.848.2-23.69.916-35.544.526-7.7-.253-15.4-.493-23.1-.6-6.97-.094-13.942-.268-20.9-.579-9.671-.432-19.372-.711-28.867-2.87a23.742,23.742,0,0,1-10.313-4.6c-3.132-2.613-6.065-9.064-4.465-13.877a7.994,7.994,0,0,1,3.842-4.415,47.032,47.032,0,0,1,5-1.983,108.676,108.676,0,0,1,21.808-1.129c4.334.148,8.673.016,12.991.3a34.526,34.526,0,0,1,5.365.383.563.563,0,0,0,.621-.267,34.268,34.268,0,0,0,12.573,8.256c3.774,1.549,7.6,2.973,11.4,4.453a6.457,6.457,0,0,0,5.608,5.186,24.644,24.644,0,0,0,3.623.3,97.336,97.336,0,0,0,11.455-.921,6.361,6.361,0,0,0,2.1-.064c4.075.3,8.128.954,12.219.965,5.269.014,7.414-1.389,8.665-5.442a1.063,1.063,0,0,0,.833-.212c4.88-1.9,9.91-3.423,14.64-5.71A29.084,29.084,0,0,0,728.943,676Z" transform="translate(-76.717 -170.828)" fill="#6a68ab"/>
    <path id="shape-28" data-name="shape" d="M1051.675,619.91l-.242.461a.315.315,0,0,0-.223.128c-1.6,1.067-2.654,2.7-4.117,3.913a21.7,21.7,0,0,0-5.81-7.382,1.616,1.616,0,0,1,1.259.143A32.11,32.11,0,0,0,1051.675,619.91Z" transform="translate(-324.47 -139.009)" fill="#cee9ea"/>
    <path id="shape-29" data-name="shape" d="M1054.035,628.642c1.463-1.209,2.519-2.846,4.117-3.913l.275.272.005.005.293.582a46.993,46.993,0,0,0-4.228,4.09Z" transform="translate(-331.413 -143.24)" fill="#f4891d"/>
    <path id="shape-30" data-name="shape" d="M997.459,614.737l.314-.307C997.824,614.691,997.649,614.722,997.459,614.737Z" transform="translate(-300.613 -137.633)" fill="#ceeaea"/>
    <path id="shape-31" data-name="shape" d="M1063.347,624.848l-.275-.272a.315.315,0,0,1,.223-.128C1063.312,624.581,1063.329,624.714,1063.347,624.848Z" transform="translate(-336.332 -143.087)" fill="#eb7416"/>
    <path id="shape-32" data-name="shape" d="M748.4,562.093c.6-1.531,1.193-3.068,1.813-4.592,2.367-5.833,6.59-9.127,12.976-9.453.339-.017.674-.087,1.011-.133a7.244,7.244,0,0,0,6.673,5.64c2.507.065,5.324-2.51,5.985-5.468a44.07,44.07,0,0,1,5.292,1.032c4.4,1.087,6.686,4.261,8.194,8.2.9,2.359,1.732,4.746,2.595,7.12,1.135,4.268,2.13,8.579,3.442,12.792,1.381,4.433.274,7.982-3.064,11.046a25.381,25.381,0,0,1-6.4,4.538c-1.249.578-1.541,1.2-.974,2.434.853,1.853,1.6,3.754,2.394,5.634a24.545,24.545,0,0,1-7.327.77c.067-1.2.173-2.4.181-3.6,0-.537.31-1.314-.351-1.561-.547-.2-1.057.342-1.508.7a3.9,3.9,0,0,1-2.027,1.4c-.076.031-.153.064-.228.1-.812.2-1.155-.567-1.74-.835a16.123,16.123,0,0,1-2.717-4.935l.471-1.337A6.519,6.519,0,0,0,775,590.306a5.872,5.872,0,0,0,2.187-1.6,4.559,4.559,0,0,0,1.935-1.326c.8-.4,1.846-.476,2.147-1.565a3.212,3.212,0,0,0,1.954-1.289c1.3-.582,2.264-1.676,3.5-2.356,1.283-.708,1.48-1.471.706-2.813-1.076-1.868-1.86-3.9-2.953-6.266l-.559,2.5c-.249,1.116-.079,2.348-.908,3.3-.761-1.4-1.36-2.917-2.653-3.958-1.471-1.185-2.961-2.345-4.437-3.523a3.176,3.176,0,0,0-3.628-.414c-.894.4-1.242,1.59-2.173,1.575-1.465-.023-2.715.646-4.08.906a14.239,14.239,0,0,0,.2-2.89c-.314-2.226-1.757-2.994-3.6-1.785a10.835,10.835,0,0,0-4.91,6.443,9.306,9.306,0,0,0-1.461,4.095c-.632.2-.554.729-.51,1.2.113,1.2.258,2.394.39,3.591a16.9,16.9,0,0,1-5.681,3.489,2.757,2.757,0,0,1-3.77-1.733,20.217,20.217,0,0,1-1.093-8.476A73.7,73.7,0,0,1,748.4,562.093Z" transform="translate(-163.475 -101.423)" fill="#88ccd4"/>
    <path id="shape-33" data-name="shape" d="M718.267,673.447c-3.8-1.48-7.627-2.9-11.4-4.453a34.269,34.269,0,0,1-12.573-8.256c-.827-1.7-1.74-3.354-1.456-5.37.907-6.43,6.186-9.479,12.156-6.988a38.966,38.966,0,0,1,5.323,2.714,39.922,39.922,0,0,0,6.133,3,2.23,2.23,0,0,0,1.063,1.141c2.7,1.622,5.343,3.343,8.071,4.917,4.753,2.741,9.435,5.623,14.542,7.7a1.575,1.575,0,0,0,1.512.022c2.117-1.179,4.32-2.22,6.357-3.52,2.155-1.374,4.648-2,6.8-3.33,2.894-1.783,5.787-3.568,8.641-5.414.623-.4,1.592-.685,1.358-1.8,4.108-1.538,7.861-3.848,11.91-5.506,6.328-2.591,11.916,1.306,11.862,8.188-.013,1.667-.875,2.947-1.6,4.314a29.09,29.09,0,0,1-9.563,6.732c-4.73,2.287-9.76,3.807-14.64,5.71a8.172,8.172,0,0,1,.075-1.157c.526-2.577-.232-3.993-2.591-4.79.075-.619.713.017.946-.522a3.882,3.882,0,0,0-2.144.117c-1.127.442-2.253.9-3.41,1.251-3.461,1.059-7.058.956-10.617,1.184-.549.035-1.187-.259-1.619.348a36.407,36.407,0,0,1-1.195,3.991c-.362,1.43-1.311,2.7-1.161,4.268a6.37,6.37,0,0,1-2.1.064c-3.724-1.113-7.653-1.145-11.4-2.194C724.481,674.956,721.365,674.232,718.267,673.447Z" transform="translate(-134.75 -155.64)" fill="#ed3e75"/>
    <path id="shape-34" data-name="shape" d="M793.077,661.364c.234,1.11-.735,1.392-1.358,1.8-2.854,1.846-5.747,3.631-8.641,5.414-2.156,1.328-4.649,1.956-6.8,3.33-2.038,1.3-4.241,2.34-6.358,3.52a1.575,1.575,0,0,1-1.512-.022c-5.107-2.08-9.788-4.962-14.542-7.7-2.728-1.573-5.371-3.294-8.071-4.916a2.23,2.23,0,0,1-1.063-1.141,52.837,52.837,0,0,0,5.517.868,30.8,30.8,0,0,0,7.879.525c.164,1.233.416,2.462.467,3.7.048,1.169.568,1.52,1.63,1.325l1.833-.03.128,0,.123-.036c.858-.042,2.089.67,2.116-1.048.208,1.07.894,1.321,1.863,1.085.764-.152,1.708.526,2.281-.5.447.789,1.19.509,1.854.513.732-.036,1.5.239,2.182-.235a.408.408,0,0,0,.217-.059c.5.546,1.129.288,1.719.281l2.136.031c.645-.267,1.4.241,2.006-.273.7.522,1.108.467,1.225-.517a13.191,13.191,0,0,1,.657-3.859,24.546,24.546,0,0,0,7.327-.771C789.707,662.578,791.308,661.634,793.077,661.364Z" transform="translate(-163.028 -163.184)" fill="#df346f"/>
    <path id="shape-35" data-name="shape" d="M764.716,649.006a30.781,30.781,0,0,1-7.879-.524c1.646-2.96,3.721-5.695,4.721-8.994.393-1.3.8-2.594,1.193-3.89.369.4.268.914.354,1.383.521,2.849.631,5.763,1.372,8.577.041.711-.322,1.479.3,2.109Q764.744,648.336,764.716,649.006Z" transform="translate(-169.62 -149.156)" fill="#88ccd4"/>
    <path id="shape-36" data-name="shape" d="M771.433,635.734c-.741-2.814-.851-5.728-1.372-8.577-.086-.468.015-.986-.354-1.383q-.045-1.227-.091-2.454.042-2.856.083-5.713l1.891-.053q-.009,6.6-.018,13.194v.324q0,.714-.008,1.428l.007.328q.009.722.017,1.444Z" transform="translate(-176.578 -139.334)" fill="#ec2d2e"/>
    <path id="shape-37" data-name="shape" d="M768.756,617.248q-.041,2.857-.083,5.713l-.372-1.274c-.132-1.2-.277-2.393-.39-3.592-.044-.473-.122-1,.51-1.2Z" transform="translate(-175.634 -138.974)" fill="#fdfdfd"/>
    <path id="shape-38" data-name="shape" d="M782.061,516.191c.964-2.017.841-2.661-.691-4.353a14.669,14.669,0,0,1-1.492-1.981c-.839-1.319-1.432-2.708-2.923-3.637a4.867,4.867,0,0,1-1.928-4.372c0-.7.239-1.216,1.013-1.035.631.147.83-.063,1.055-.609,1.5-3.637,4.57-4.82,8.172-5.032,1.645-.1,3.3.15,4.913-.457a9.508,9.508,0,0,0,3.294-2.118c.7-.684,1.043-.733,1.465.305a15.164,15.164,0,0,1,1.262,8.087c.129.071.219.165.283.15.631-.151,1.274-.769,1.9-.154.6.59.328,1.379.159,2.074a5.537,5.537,0,0,1-3.03,4.054c-.174.081-.421.169-.477.316-.95,2.441-2.97,4.175-4.22,6.415-.692,1.806-1.609,2.582-3.563,2.286A26.75,26.75,0,0,0,782.061,516.191Zm9.541-19.272c-.559.108-1.461-.157-1.515.693s.812.605,1.354.675c1.012.131,2.024.259,3.036.394.226.03.494.2.619-.126.108-.283-.119-.431-.318-.579A6.577,6.577,0,0,0,791.6,496.919Zm-12.493,1.693c1.543-.136,2.951-.251,4.355-.391a.591.591,0,0,0,.553-.577c.01-.343-.283-.457-.568-.554A4.607,4.607,0,0,0,779.109,498.612Zm11.8,2.732c.131.663.15,1.486,1.046,1.5.953.017,1.146-.794,1.155-1.54.008-.705-.233-1.449-1.092-1.432S791.02,500.652,790.906,501.344Zm-10.089-.186c.1.716.113,1.551,1.031,1.681.944.133,1.065-.691,1.145-1.356.1-.794-.2-1.545-1.046-1.642C781.161,499.75,781.05,500.563,780.817,501.157Zm6.061,8.6c-.56.312-2.023-.387-1.975.384.063,1,1.555.839,2.451.871.651.023,1.765-.141,1.751-.9-.011-.642-1.044-.259-1.62-.351A4.922,4.922,0,0,0,786.879,509.752Z" transform="translate(-179.523 -71.038)" fill="#f4a78e"/>
    <path id="shape-39" data-name="shape" d="M788.294,542.172a26.755,26.755,0,0,1,5.191-.059c1.954.3,2.871-.481,3.563-2.286.223,1.541.5,3.053,2.087,3.857-.66,2.959-3.478,5.533-5.984,5.468a7.245,7.245,0,0,1-6.673-5.64A2.606,2.606,0,0,0,788.294,542.172Z" transform="translate(-185.757 -97.02)" fill="#f9aa92"/>
    <path id="shape-40" data-name="shape" d="M798.717,702.627c-.15-1.568.8-2.838,1.161-4.268a36.4,36.4,0,0,0,1.2-3.991,20.264,20.264,0,0,0,2.452.135c4.587-.283,9.19-.442,13.679-1.6.988-.254,1.587.228,2.084,1.128.752,1.362.351,2.735.313,4.114-1.251,4.053-3.4,5.456-8.665,5.442C806.844,703.581,802.792,702.926,798.717,702.627Z" transform="translate(-192.411 -180.319)" fill="#f9aa92"/>
    <path id="shape-41" data-name="shape" d="M748.715,704.442c3.1.785,6.214,1.508,9.291,2.371,3.742,1.049,7.672,1.081,11.4,2.194a97.443,97.443,0,0,1-11.456.921,24.659,24.659,0,0,1-3.622-.3A6.457,6.457,0,0,1,748.715,704.442Z" transform="translate(-165.199 -186.635)" fill="#f4a78e"/>
    <path id="shape-42" data-name="shape" d="M822.435,696.4c.038-1.379.439-2.751-.313-4.114-.5-.9-1.1-1.381-2.084-1.128-4.489,1.154-9.092,1.312-13.679,1.6a20.251,20.251,0,0,1-2.452-.135c.432-.607,1.071-.313,1.619-.348,3.559-.228,7.156-.125,10.617-1.184,1.156-.354,2.283-.809,3.41-1.251a3.88,3.88,0,0,1,2.145-.117c-.233.539-.871-.1-.946.522,2.359.8,3.117,2.213,2.591,4.79a8.2,8.2,0,0,0-.075,1.157A1.061,1.061,0,0,1,822.435,696.4Z" transform="translate(-195.245 -178.567)" fill="#df346f"/>
    <path id="shape-43" data-name="shape" d="M769.4,606.823l-.334-.354a9.306,9.306,0,0,1,1.461-4.095c2.977,2.015,6.66,1.491,8.309-1.768,1.365-.259,2.614-.929,4.08-.906.931.015,1.279-1.174,2.173-1.575a3.176,3.176,0,0,1,3.627.414c1.476,1.178,2.967,2.338,4.437,3.523,1.293,1.041,1.892,2.556,2.653,3.957-.005.213-.013.427.212.552-.034.111-.068.222-.1.333a2.648,2.648,0,0,0-1.742-.107,7.261,7.261,0,0,0-2.257.012,3.825,3.825,0,0,0-1.974.009c-.723.083-1.446-.48-2.169,0a3.066,3.066,0,0,0-1.858.006c-.752-.273-1.506-.641-2.233.057a2.514,2.514,0,0,0-1.962-.079c-.68-.067-1.351-.636-2.041-.032q-.125-.007-.25,0l-.64-.091-.311-.007-.826.2c-.721-.719-1.494.183-2.23-.072a5.186,5.186,0,0,0-1.926.007,2.294,2.294,0,0,0-2.205-.033Z" transform="translate(-176.278 -128.55)" fill="#fbddb2"/>
    <path id="shape-44" data-name="shape" d="M793.722,646.712a16.117,16.117,0,0,0,2.717,4.935,4.9,4.9,0,0,1-.331,1.758c-1.886-.237-1.652,1.266-1.929,2.349-.288-1.463-.548-1.565-2.33-.914a3.124,3.124,0,0,0-1.832.289,2.593,2.593,0,0,0-2.223-.557,2.871,2.871,0,0,0-1.893-.921c-.054-.739-.68-1.138-1.051-1.673-1.234-1.779-.121-2.838,1.077-3.905l1.889.02c.8.4,1.5.007,2.214-.294a2.648,2.648,0,0,0,1.851-.328C792.593,647.456,792.966,646.619,793.722,646.712Z" transform="translate(-184.578 -155.203)" fill="#f9aa92"/>
    <path id="shape-45" data-name="shape" d="M780.581,597.758c-1.649,3.259-5.332,3.782-8.309,1.768a10.835,10.835,0,0,1,4.91-6.443c1.845-1.21,3.287-.441,3.6,1.785A14.239,14.239,0,0,1,780.581,597.758Z" transform="translate(-178.023 -125.701)" fill="#f9aa92"/>
    <path id="shape-46" data-name="shape" d="M802.767,630.5c-.757-.093-1.129.744-1.841.76,0-.166.009-.331.014-.5.168-.117.18-.246.03-.388q.029-6.526.057-13.051c.727-.7,1.482-.331,2.233-.057q-.011,5.948-.023,11.9Z" transform="translate(-193.622 -138.988)" fill="#fdfdfd"/>
    <path id="shape-47" data-name="shape" d="M827.966,609.522c-.225-.125-.217-.34-.212-.553.83-.956.66-2.187.909-3.3l.559-2.5c1.093,2.362,1.877,4.4,2.953,6.266.774,1.343.576,2.105-.706,2.813-1.231.679-2.192,1.774-3.495,2.354q.038-.523.075-1.043a9.752,9.752,0,0,0,.464-3.255C828.513,609.988,828.722,609.369,827.966,609.522Z" transform="translate(-208.226 -131.499)" fill="#504e91"/>
    <path id="shape-48" data-name="shape" d="M806,629.386q.012-5.948.023-11.9a3.066,3.066,0,0,1,1.858-.006q.013,5.307.026,10.614A6.516,6.516,0,0,1,806,629.386Z" transform="translate(-196.384 -139.214)" fill="#ec2d2e"/>
    <path id="shape-49" data-name="shape" d="M810.154,628.04q-.013-5.307-.026-10.614c.724-.479,1.446.083,2.169,0q.022,4.5.044,9.01A5.874,5.874,0,0,1,810.154,628.04Z" transform="translate(-198.631 -139.158)" fill="#fdfdfd"/>
    <path id="shape-50" data-name="shape" d="M810.067,659.311a4.9,4.9,0,0,0,.331-1.758c.584.268.928,1.038,1.74.835l.205.841q0,1.074.009,2.15l-.061.1.057.1q-.082,2.208-.165,4.417l-2.137-.031A53.874,53.874,0,0,1,810.067,659.311Z" transform="translate(-198.536 -161.109)" fill="#fdfdfd"/>
    <path id="shape-51" data-name="shape" d="M814.933,626.5q-.023-4.505-.044-9.01a3.825,3.825,0,0,1,1.974-.009q0,3.847.006,7.693A4.559,4.559,0,0,1,814.933,626.5Z" transform="translate(-201.223 -139.225)" fill="#ec2d2e"/>
    <path id="shape-52" data-name="shape" d="M821.042,659.653a13.188,13.188,0,0,0-.657,3.859c-.117.983-.523,1.039-1.225.517q-.037-4.249-.074-8.5a2.189,2.189,0,0,1,.279-.331c.451-.362.961-.908,1.508-.7.662.247.355,1.024.351,1.561C821.215,657.254,821.109,658.453,821.042,659.653Z" transform="translate(-203.508 -159.419)" fill="#fdfdfd"/>
    <path id="shape-53" data-name="shape" d="M819.227,625.2q0-3.846-.006-7.693a7.261,7.261,0,0,1,2.257-.012q-.052,3.07-.1,6.14C821.073,624.729,820.03,624.8,819.227,625.2Z" transform="translate(-203.582 -139.251)" fill="#fdfdfd"/>
    <path id="shape-54" data-name="shape" d="M816.777,656.819q.037,4.249.074,8.5c-.611.514-1.362.006-2.006.273q.083-2.209.165-4.417l.073-.1-.069-.1q0-1.075-.009-2.15a1.027,1.027,0,0,0,.023-.938A2.2,2.2,0,0,1,816.777,656.819Z" transform="translate(-201.199 -160.709)" fill="#ec2d2e"/>
    <path id="shape-55" data-name="shape" d="M823.946,623.642q.052-3.07.1-6.14a2.647,2.647,0,0,1,1.742.108q.092,1.849.183,3.7-.037.521-.075,1.043A3.21,3.21,0,0,1,823.946,623.642Z" transform="translate(-206.154 -139.254)" fill="#ec2d2e"/>
    <path id="shape-56" data-name="shape" d="M814.976,659.17a1.028,1.028,0,0,1-.023.939q-.1-.42-.2-.841C814.823,659.234,814.9,659.2,814.976,659.17Z" transform="translate(-201.147 -161.989)" fill="#df346f"/>
    <path id="shape-57" data-name="shape" d="M773.917,617.236a2.294,2.294,0,0,1,2.205.033q-.013,13.309-.026,26.619c-1.062.2-1.582-.156-1.63-1.324-.051-1.237-.3-2.465-.467-3.7q.027-.671.055-1.341a12.417,12.417,0,0,0-.141-3.57q-.008-.722-.017-1.444c.032-.033.1-.073.09-.1a1.356,1.356,0,0,0-.1-.232q0-.714.008-1.428c.033-.031.1-.07.093-.093a1.35,1.35,0,0,0-.092-.231Q773.908,623.833,773.917,617.236Z" transform="translate(-178.904 -139.016)" fill="#fdfdfd"/>
    <path id="shape-58" data-name="shape" d="M785.187,631.982c-1.2,1.068-2.311,2.126-1.077,3.905.371.535,1,.934,1.051,1.673q.034,2.657.069,5.315c-.027,1.718-1.259,1.006-2.116,1.048-.054-.16-.108-.32-.163-.479q.031-5.287.063-10.573c.022-.03.069-.067.063-.088a1.146,1.146,0,0,0-.092-.186q0-7.619,0-15.239c.735.255,1.509-.647,2.229.072Q785.2,624.705,785.187,631.982Z" transform="translate(-183.837 -139.111)" fill="#fdfdfd"/>
    <path id="shape-59" data-name="shape" d="M780.718,633.017l-.063,10.573-.089.511-1.833.03q.013-13.31.026-26.62a5.186,5.186,0,0,1,1.926-.007q0,7.619,0,15.238Q780.7,632.88,780.718,633.017Z" transform="translate(-181.54 -139.258)" fill="#ec2d2e"/>
    <path id="shape-60" data-name="shape" d="M800.855,664.1c1.782-.651,2.042-.549,2.33.914l.015,2.839a2.174,2.174,0,0,0-.043,1.239c-.685.473-1.45.2-2.182.235q-.012-.4-.022-.806a.812.812,0,0,0-.027-.942Q800.89,665.844,800.855,664.1Z" transform="translate(-193.583 -164.467)" fill="#fdfdfd"/>
    <path id="shape-61" data-name="shape" d="M791.943,663.935a2.594,2.594,0,0,1,2.223.557q.049,1.493.1,2.987-.006.385-.011.77.005.334.011.668c-.574,1.022-1.518.344-2.281.5q-.013-.389-.026-.779.236-.187,0-.379-.014-1.714-.027-3.428c.161-.125.168-.25,0-.375Z" transform="translate(-188.725 -164.565)" fill="#fdfdfd"/>
    <path id="shape-62" data-name="shape" d="M805.985,666.57l-.015-2.839c.277-1.083.042-2.587,1.929-2.349a53.874,53.874,0,0,0-.021,6.649c-.589.006-1.22.265-1.718-.281Q806.072,667.16,805.985,666.57Z" transform="translate(-196.368 -163.18)" fill="#ec2d2e"/>
    <path id="shape-63" data-name="shape" d="M789.707,667.573q.013.39.026.78c-.969.236-1.655-.015-1.863-1.085q-.034-2.656-.069-5.314a2.871,2.871,0,0,1,1.894.921c0,.172-.008.344-.012.517,0,.125,0,.25,0,.375q.014,1.714.027,3.428Q789.708,667.384,789.707,667.573Z" transform="translate(-186.477 -163.504)" fill="#ec2d2e"/>
    <path id="shape-64" data-name="shape" d="M796.932,667.822q-.049-1.493-.1-2.987a3.123,3.123,0,0,1,1.832-.289q.035,1.739.07,3.478a1.166,1.166,0,0,0,.027.942q.011.4.022.807c-.664,0-1.407.275-1.854-.514q-.005-.334-.011-.667A.481.481,0,0,0,796.932,667.822Z" transform="translate(-191.395 -164.908)" fill="#ec2d2e"/>
    <path id="shape-65" data-name="shape" d="M805.869,672.8q.087.59.174,1.18a.412.412,0,0,1-.217.059A2.173,2.173,0,0,1,805.869,672.8Z" transform="translate(-196.252 -169.409)" fill="#f9aa92"/>
    <path id="shape-66" data-name="shape" d="M782.756,675.377l.089-.511c.054.16.109.32.163.48l-.123.036Z" transform="translate(-183.73 -170.534)" fill="#fbddb2"/>
    <path id="shape-67" data-name="shape" d="M773.676,654.249a12.422,12.422,0,0,1,.141,3.57c-.618-.63-.255-1.4-.3-2.109Q773.6,654.98,773.676,654.249Z" transform="translate(-178.665 -159.31)" fill="#fbddb2"/>
    <path id="shape-68" data-name="shape" d="M773.89,650.36a1.354,1.354,0,0,1,.1.232c.006.023-.058.063-.09.1Z" transform="translate(-178.904 -157.193)" fill="#fbddb2"/>
    <path id="shape-69" data-name="shape" d="M773.908,646.513a1.347,1.347,0,0,1,.092.231c.005.023-.06.062-.093.093Z" transform="translate(-178.913 -155.099)" fill="#fbddb2"/>
    <path id="shape-70" data-name="shape" d="M809.593,502.675a6.576,6.576,0,0,1,3.176,1.058c.2.148.426.3.318.579-.125.327-.393.156-.619.126-1.011-.135-2.024-.263-3.036-.394-.542-.07-1.407.162-1.354-.675S809.034,502.783,809.593,502.675Z" transform="translate(-197.514 -76.794)" fill="#504e91"/>
    <path id="shape-71" data-name="shape" d="M783.985,504.429a4.608,4.608,0,0,1,4.339-1.523c.285.1.578.211.568.554a.591.591,0,0,1-.553.577C786.935,504.179,785.528,504.293,783.985,504.429Z" transform="translate(-184.399 -76.856)" fill="#272453"/>
    <path id="shape-72" data-name="shape" d="M809.878,510.632c.114-.692.261-1.452,1.109-1.468s1.1.726,1.092,1.432c-.008.745-.2,1.557-1.155,1.539C810.028,512.118,810.009,511.3,809.878,510.632Z" transform="translate(-198.495 -80.326)" fill="#272453"/>
    <path id="shape-73" data-name="shape" d="M787.735,510.4c.233-.595.344-1.408,1.131-1.317.842.1,1.143.848,1.046,1.642-.081.665-.2,1.489-1.145,1.356C787.848,511.947,787.83,511.112,787.735,510.4Z" transform="translate(-186.441 -80.277)" fill="#272453"/>
    <path id="shape-74" data-name="shape" d="M798.678,530.81a4.926,4.926,0,0,1,.607,0c.576.092,1.608-.291,1.62.351.014.759-1.1.923-1.751.9-.9-.031-2.388.13-2.451-.871C796.655,530.423,798.118,531.122,798.678,530.81Z" transform="translate(-191.322 -92.096)" fill="#fdfdfd"/>
    <path id="shape-75" data-name="shape" d="M794.2,631.6c-.711.3-1.409.7-2.214.294q-.006-6.718-.012-13.435a1.959,1.959,0,0,0,.175-1.234c.69-.6,1.361-.035,2.041.032Q794.2,624.431,794.2,631.6Z" transform="translate(-188.751 -139.006)" fill="#fdfdfd"/>
    <path id="shape-76" data-name="shape" d="M796.851,631.778q0-7.172-.01-14.344a2.515,2.515,0,0,1,1.962.079q-.029,6.526-.057,13.052-.015.194-.03.388c0,.166-.009.331-.014.5A2.648,2.648,0,0,1,796.851,631.778Z" transform="translate(-191.398 -139.181)" fill="#ec2d2e"/>
    <path id="shape-77" data-name="shape" d="M789.735,618.669q.006,6.718.012,13.435l-1.889-.02q.012-7.276.024-14.553l.826-.2.311.007.64.091Q789.7,618.05,789.735,618.669Z" transform="translate(-186.508 -139.213)" fill="#ec2d2e"/>
    <path id="shape-78" data-name="shape" d="M828.181,621.124q-.091-1.849-.183-3.7c.034-.112.068-.223.1-.333.756-.153.547.466.545.777A9.755,9.755,0,0,1,828.181,621.124Z" transform="translate(-208.36 -139.069)" fill="#cee9ea"/>
    <path id="shape-79" data-name="shape" d="M791.888,618.784q-.038-.619-.076-1.238.125,0,.25,0A1.959,1.959,0,0,1,791.888,618.784Z" transform="translate(-188.66 -139.329)" fill="#f9aa92"/>
    <path id="shape-80" data-name="shape" d="M790.036,617.34l-.311-.007Z" transform="translate(-187.524 -139.213)" fill="#f9aa92"/>
    <path id="shape-81" data-name="shape" d="M800.956,646.834c.01-.129.02-.258.03-.388C801.136,646.588,801.124,646.717,800.956,646.834Z" transform="translate(-193.638 -155.062)" fill="#f9aa92"/>
    <path id="shape-82" data-name="shape" d="M815.144,665.948l.069.1-.073.1-.057-.1Z" transform="translate(-201.329 -165.679)" fill="#df346f"/>
    <path id="shape-83" data-name="shape" d="M783.054,651.332c-.01-.091-.02-.183-.029-.275a1.12,1.12,0,0,1,.092.187C783.123,651.265,783.076,651.3,783.054,651.332Z" transform="translate(-183.877 -157.572)" fill="#fbddb2"/>
    <path id="shape-84" data-name="shape" d="M800.933,673.138a1.167,1.167,0,0,1-.027-.942A.812.812,0,0,1,800.933,673.138Z" transform="translate(-193.564 -169.08)" fill="#f9aa92"/>
    <path id="shape-85" data-name="shape" d="M797.036,671.752a.481.481,0,0,1-.011.77Q797.031,672.137,797.036,671.752Z" transform="translate(-191.498 -168.839)" fill="#df346f"/>
    <path id="shape-86" data-name="shape" d="M791.984,673.836c0-.126,0-.252,0-.379Q792.221,673.649,791.984,673.836Z" transform="translate(-188.754 -169.767)" fill="#f9aa92"/>
    <path id="shape-87" data-name="shape" d="M791.931,665.484c0-.125,0-.25,0-.375C792.1,665.234,792.093,665.359,791.931,665.484Z" transform="translate(-188.725 -165.222)" fill="#f9aa92"/>
  </g>
</svg>
