<svg width="188" height="40" viewBox="0 0 188 40" fill="none" xmlns="http://www.w3.org/2000/svg">
<g clip-path="url(#clip0_17_2)">
<path d="M43.1052 22.312C43.3332 20.9947 43.8209 19.823 44.5682 18.797C45.3282 17.7583 46.2656 16.954 47.3802 16.384C48.4949 15.8013 49.6982 15.51 50.9902 15.51C52.5736 15.51 53.8529 15.928 54.8282 16.764C55.8162 17.6 56.3736 18.74 56.5002 20.184H52.9282C52.7636 19.6393 52.4596 19.2277 52.0162 18.949C51.5856 18.6577 51.0536 18.512 50.4202 18.512C49.4196 18.512 48.5519 18.8603 47.8172 19.557C47.0826 20.241 46.6139 21.1593 46.4112 22.312C46.3479 22.6667 46.3162 22.977 46.3162 23.243C46.3162 24.1297 46.5632 24.8327 47.0572 25.352C47.5512 25.8713 48.2289 26.131 49.0902 26.131C49.7109 26.131 50.2872 25.9853 50.8192 25.694C51.3639 25.4027 51.8199 24.9847 52.1872 24.44H55.7592C55.1259 25.884 54.1696 27.024 52.8902 27.86C51.6109 28.6833 50.1796 29.095 48.5962 29.095C47.4562 29.095 46.4619 28.8733 45.6132 28.43C44.7646 27.9867 44.1122 27.3597 43.6562 26.549C43.2002 25.7383 42.9722 24.7947 42.9722 23.718C42.9722 23.2367 43.0166 22.768 43.1052 22.312ZM60.6369 17.296C60.1302 17.296 59.7249 17.163 59.4209 16.897C59.1296 16.6183 58.9839 16.27 58.9839 15.852C58.9839 15.282 59.2056 14.7943 59.6489 14.389C60.0922 13.9837 60.6306 13.781 61.2639 13.781C61.7706 13.781 62.1696 13.9203 62.4609 14.199C62.7522 14.465 62.8979 14.8133 62.8979 15.244C62.8979 15.8013 62.6762 16.2827 62.2329 16.688C61.7896 17.0933 61.2576 17.296 60.6369 17.296ZM62.0429 18.398L60.1809 29H56.9319L58.7939 18.398H62.0429ZM70.8764 18.284C71.9404 18.284 72.7764 18.5817 73.3844 19.177C73.9924 19.7723 74.2964 20.602 74.2964 21.666C74.2964 22.0207 74.2584 22.4007 74.1824 22.806L73.0804 29H69.8504L70.8764 23.243C70.9144 23.0277 70.9334 22.8377 70.9334 22.673C70.9334 22.141 70.7814 21.7293 70.4774 21.438C70.1861 21.1467 69.7744 21.001 69.2424 21.001C68.6091 21.001 68.0771 21.1973 67.6464 21.59C67.2157 21.9827 66.9371 22.5337 66.8104 23.243V23.148L65.7844 29H62.5354L64.3974 18.398H67.6464L67.3994 19.823C67.8174 19.3543 68.3241 18.9807 68.9194 18.702C69.5274 18.4233 70.1797 18.284 70.8764 18.284ZM81.9502 18.246C83.3182 18.246 84.4012 18.6197 85.1992 19.367C86.0098 20.1017 86.4152 21.1087 86.4152 22.388C86.4152 22.806 86.3835 23.1797 86.3202 23.509C86.2695 23.8003 86.1935 24.1107 86.0922 24.44H78.7392C78.7265 24.516 78.7202 24.6363 78.7202 24.801C78.7202 25.3583 78.8722 25.7827 79.1762 26.074C79.4802 26.3653 79.8855 26.511 80.3922 26.511C81.2028 26.511 81.8235 26.169 82.2542 25.485H85.7122C85.2562 26.5617 84.5152 27.442 83.4892 28.126C82.4632 28.81 81.3105 29.152 80.0312 29.152C78.6632 29.152 77.5675 28.772 76.7442 28.012C75.9335 27.252 75.5282 26.2197 75.5282 24.915C75.5282 24.5223 75.5662 24.117 75.6422 23.699C75.8322 22.597 76.2248 21.6343 76.8202 20.811C77.4155 19.9877 78.1565 19.3543 79.0432 18.911C79.9298 18.4677 80.8988 18.246 81.9502 18.246ZM83.1282 22.787C83.1535 22.6097 83.1662 22.4893 83.1662 22.426C83.1662 21.9193 83.0078 21.533 82.6912 21.267C82.3745 20.9883 81.9565 20.849 81.4372 20.849C80.8798 20.849 80.3858 21.02 79.9552 21.362C79.5372 21.6913 79.2332 22.1663 79.0432 22.787H83.1282ZM102.474 18.284C103.614 18.284 104.501 18.588 105.134 19.196C105.78 19.7913 106.103 20.6273 106.103 21.704C106.103 22.0333 106.065 22.4007 105.989 22.806L104.887 29H101.657L102.683 23.243C102.708 23.1163 102.721 22.9453 102.721 22.73C102.721 22.198 102.569 21.7927 102.265 21.514C101.974 21.2353 101.562 21.096 101.03 21.096C100.397 21.096 99.8648 21.286 99.4342 21.666C99.0035 22.0333 98.7312 22.559 98.6172 23.243L97.5912 29H94.3612L95.3872 23.243C95.4125 23.1163 95.4252 22.9453 95.4252 22.73C95.4252 22.198 95.2732 21.7927 94.9692 21.514C94.6778 21.2353 94.2662 21.096 93.7342 21.096C93.1008 21.096 92.5688 21.286 92.1382 21.666C91.7075 22.0333 91.4352 22.559 91.3212 23.243V23.148L90.2952 29H87.0462L88.9082 18.398H92.1572L91.9292 19.747C92.3345 19.291 92.8222 18.9363 93.3922 18.683C93.9748 18.417 94.6018 18.284 95.2732 18.284C96.0838 18.284 96.7678 18.455 97.3252 18.797C97.8952 19.139 98.3005 19.633 98.5412 20.279C99.0098 19.6837 99.5925 19.2023 100.289 18.835C100.986 18.4677 101.714 18.284 102.474 18.284ZM107.463 23.68C107.653 22.5907 108.027 21.6343 108.584 20.811C109.142 19.9877 109.813 19.3543 110.598 18.911C111.384 18.4677 112.213 18.246 113.087 18.246C113.835 18.246 114.462 18.398 114.968 18.702C115.475 19.006 115.842 19.405 116.07 19.899L116.336 18.398H119.585L117.704 29H114.455L114.74 27.499C114.335 27.993 113.822 28.392 113.201 28.696C112.581 29 111.897 29.152 111.149 29.152C110.402 29.152 109.737 28.981 109.154 28.639C108.584 28.297 108.141 27.8157 107.824 27.195C107.508 26.5617 107.349 25.8207 107.349 24.972C107.349 24.5667 107.387 24.136 107.463 23.68ZM115.405 23.699C115.443 23.471 115.462 23.262 115.462 23.072C115.462 22.4513 115.279 21.9637 114.911 21.609C114.557 21.2543 114.101 21.077 113.543 21.077C112.897 21.077 112.308 21.3113 111.776 21.78C111.244 22.236 110.909 22.8693 110.769 23.68C110.731 23.908 110.712 24.117 110.712 24.307C110.712 24.9277 110.89 25.4217 111.244 25.789C111.612 26.1437 112.068 26.321 112.612 26.321C113.258 26.321 113.847 26.0867 114.379 25.618C114.911 25.1493 115.253 24.5097 115.405 23.699ZM140.765 15.662L134.932 29H130.999L130.41 20.241L126.667 29H122.734L121.708 15.662H125.185L125.394 25.371L129.479 15.662H133.07L133.64 25.314L137.269 15.662H140.765ZM144.883 29.152C143.971 29.152 143.161 28.9683 142.451 28.601C141.742 28.2337 141.191 27.7143 140.798 27.043C140.418 26.3717 140.228 25.5927 140.228 24.706C140.228 23.5027 140.513 22.407 141.083 21.419C141.653 20.431 142.439 19.6583 143.439 19.101C144.44 18.531 145.555 18.246 146.783 18.246C147.695 18.246 148.506 18.436 149.215 18.816C149.937 19.1833 150.495 19.7027 150.887 20.374C151.28 21.0453 151.476 21.8243 151.476 22.711C151.476 23.927 151.185 25.029 150.602 26.017C150.032 26.9923 149.241 27.7587 148.227 28.316C147.227 28.8733 146.112 29.152 144.883 29.152ZM145.339 26.359C145.871 26.359 146.346 26.2007 146.764 25.884C147.195 25.5547 147.524 25.1367 147.752 24.63C147.993 24.1107 148.113 23.5723 148.113 23.015C148.113 22.3817 147.942 21.894 147.6 21.552C147.258 21.21 146.828 21.039 146.308 21.039C145.764 21.039 145.282 21.2037 144.864 21.533C144.459 21.8497 144.142 22.2677 143.914 22.787C143.686 23.3063 143.572 23.851 143.572 24.421C143.572 25.0417 143.737 25.523 144.066 25.865C144.396 26.1943 144.82 26.359 145.339 26.359ZM156.905 20.317C157.399 19.6837 157.963 19.1897 158.596 18.835C159.242 18.4677 159.913 18.284 160.61 18.284L160.002 21.723H159.109C158.298 21.723 157.659 21.9003 157.19 22.255C156.721 22.597 156.411 23.205 156.259 24.079L155.385 29H152.136L153.998 18.398H157.247L156.905 20.317ZM166.001 14.94L163.512 29H160.263L162.752 14.94H166.001ZM166.17 23.68C166.36 22.5907 166.734 21.6343 167.291 20.811C167.849 19.9877 168.52 19.3543 169.305 18.911C170.091 18.4677 170.92 18.246 171.794 18.246C172.491 18.246 173.099 18.3917 173.618 18.683C174.15 18.9743 174.537 19.367 174.777 19.861L175.651 14.94H178.9L176.411 29H173.162L173.428 27.48C173.023 27.9867 172.516 28.392 171.908 28.696C171.3 29 170.623 29.152 169.875 29.152C169.128 29.152 168.463 28.981 167.88 28.639C167.31 28.297 166.861 27.8093 166.531 27.176C166.215 26.5427 166.056 25.8017 166.056 24.953C166.056 24.5603 166.094 24.136 166.17 23.68ZM174.112 23.699C174.15 23.471 174.169 23.262 174.169 23.072C174.169 22.4513 173.986 21.9637 173.618 21.609C173.264 21.2543 172.808 21.077 172.25 21.077C171.604 21.077 171.015 21.3113 170.483 21.78C169.951 22.236 169.616 22.8693 169.476 23.68C169.438 23.908 169.419 24.117 169.419 24.307C169.419 24.9277 169.597 25.4217 169.951 25.789C170.319 26.1437 170.775 26.321 171.319 26.321C171.965 26.321 172.554 26.0867 173.086 25.618C173.618 25.1493 173.96 24.5097 174.112 23.699Z" fill="#546EE5"/>
<path d="M24.0688 16.658C24.6023 16.858 25.1181 17.1025 25.6106 17.389C26.5178 17.9453 27.2911 18.6947 27.8754 19.584C28.4598 20.4733 28.8408 21.4806 28.9914 22.534C29.0544 22.86 29.1124 23.189 29.1424 23.519C29.1633 23.6045 29.1637 23.6938 29.1435 23.7794C29.1233 23.8651 29.0832 23.9448 29.0263 24.012C28.9695 24.0792 28.8975 24.132 28.8164 24.166C28.7352 24.2001 28.6472 24.2145 28.5594 24.208C27.3145 24.225 26.0696 24.22 24.8247 24.208C24.6797 24.216 24.5375 24.1665 24.4287 24.0703C24.32 23.9741 24.2535 23.8389 24.2438 23.694C24.2248 23.573 24.1908 23.454 24.1688 23.333C24.0886 22.8559 23.868 22.4134 23.5351 22.0623C23.2022 21.7112 22.7721 21.4674 22.2999 21.362C20.9617 20.9762 19.5803 20.7598 18.1882 20.718C15.6403 20.5646 13.0849 20.585 10.5398 20.779C9.82874 20.8384 9.12355 20.9544 8.43096 21.126C7.88943 21.2324 7.39322 21.5014 7.00856 21.8972C6.62389 22.293 6.36908 22.7967 6.27813 23.341C6.03517 24.4741 5.91084 25.6293 5.90715 26.788C5.82592 28.4882 5.92648 30.1922 6.20713 31.871C6.2863 32.2435 6.39531 32.609 6.53311 32.964C6.73528 33.4231 7.05836 33.8187 7.46783 34.1084C7.87729 34.3981 8.35777 34.5712 8.85793 34.609C9.42263 34.7376 9.99807 34.8132 10.5768 34.835C10.8848 34.842 10.9668 34.935 10.9278 35.246C10.8058 36.234 10.7218 37.226 10.6198 38.215C10.7868 38.252 10.8498 38.14 10.9278 38.076C12.1617 37.126 13.3846 36.176 14.6055 35.218C14.8126 35.0473 15.0741 34.9568 15.3424 34.963C17.228 34.9999 19.1135 34.8825 20.98 34.612C21.5768 34.5172 22.1624 34.362 22.7279 34.149C23.0866 34.0309 23.4064 33.8173 23.6531 33.5312C23.8997 33.2451 24.0638 32.8973 24.1278 32.525C24.1678 32.319 24.2278 32.114 24.2587 31.908C24.2633 31.8336 24.2827 31.7608 24.3158 31.6939C24.3489 31.6271 24.395 31.5675 24.4515 31.5188C24.5079 31.47 24.5736 31.4331 24.6446 31.4101C24.7155 31.3872 24.7904 31.3786 24.8647 31.385C26.0859 31.3804 27.3065 31.3804 28.5264 31.385C29.0054 31.385 29.2064 31.618 29.1514 32.128C28.7734 35.728 27.1275 38.146 23.4028 39.189C21.4546 39.6801 19.4543 39.9342 17.4453 39.946C15.0558 40.0408 12.663 40.0101 10.2768 39.854C8.49734 39.8078 6.75132 39.36 5.16921 38.544C4.24243 37.9984 3.4414 37.2631 2.81863 36.3863C2.19586 35.5094 1.76541 34.5109 1.55549 33.456C1.09293 31.3222 0.912735 29.1368 1.01953 26.956C1.00421 25.2548 1.19798 23.5581 1.59648 21.904C1.83347 20.8351 2.30392 19.8317 2.97414 18.9659C3.64436 18.1001 4.49775 17.3933 5.47319 16.896C5.51428 16.8656 5.55306 16.8322 5.58918 16.796C3.94117 16.4674 2.46864 15.5512 1.4455 14.218C0.405896 12.9008 -0.104717 11.243 0.0136054 9.56904C0.107542 8.08787 0.672454 6.67551 1.62587 5.53817C2.57928 4.40082 3.87127 3.59804 5.3132 3.24704C6.94524 2.86522 8.65997 3.07847 10.1488 3.84842C11.6376 4.61837 12.8028 5.89446 13.4346 7.44704C13.6902 5.36714 14.7086 3.4561 16.2924 2.08404C17.8525 0.686014 19.89 -0.05931 21.9839 0.00204343C23.9438 0.0187304 25.8359 0.721464 27.3316 1.98818C28.8273 3.25489 29.832 5.00554 30.1713 6.93604C30.55 9.02579 30.134 11.1816 29.0049 12.9804C27.8759 14.7791 26.1153 16.0909 24.0688 16.658ZM19.8841 8.43304C19.8807 8.82127 19.9926 9.20177 20.2055 9.52642C20.4183 9.85108 20.7227 10.1053 21.0801 10.257C21.4374 10.4087 21.8317 10.4509 22.2131 10.3785C22.5945 10.306 22.9459 10.1221 23.2227 9.84999C23.4996 9.57785 23.6896 9.22972 23.7686 8.84961C23.8476 8.4695 23.8122 8.07449 23.6667 7.71453C23.5213 7.35457 23.2724 7.04582 22.9515 6.82733C22.6306 6.60884 22.2521 6.49042 21.8639 6.48704C21.6062 6.4848 21.3505 6.53336 21.1115 6.62994C20.8725 6.72653 20.6548 6.86925 20.471 7.04995C20.2871 7.23066 20.1407 7.44581 20.04 7.68312C19.9393 7.92043 19.8863 8.17526 19.8841 8.43304ZM6.90608 11.833C7.26919 11.8394 7.62607 11.7382 7.93176 11.5421C8.23745 11.346 8.47827 11.0638 8.62389 10.7311C8.76951 10.3984 8.81342 10.03 8.75007 9.67239C8.68673 9.31476 8.51897 8.98388 8.26793 8.72143C8.01689 8.45898 7.6938 8.2767 7.33936 8.19755C6.98492 8.1184 6.61498 8.14593 6.27616 8.27666C5.93733 8.40739 5.64477 8.63548 5.43533 8.9322C5.22589 9.22891 5.10894 9.58098 5.09922 9.94404C5.09033 10.4339 5.27516 10.9074 5.61351 11.2617C5.95186 11.616 6.41638 11.8224 6.90608 11.836V11.833ZM17.2223 15.603C15.6213 14.5168 14.4163 12.9401 13.7886 11.11C13.4701 12.9565 12.4355 14.6025 10.9098 15.69C13.0926 15.603 15.1494 15.551 17.2223 15.603Z" fill="#546EE5"/>
<path d="M32.897 22.972V33.022L31.3671 31.3C30.9672 30.85 30.5672 30.393 30.1673 29.949C30.0849 29.8676 30.0203 29.77 29.9775 29.6625C29.9346 29.5549 29.9144 29.4397 29.9183 29.324C29.9342 28.387 29.9302 27.451 29.9183 26.515C29.9146 26.4229 29.9298 26.3312 29.9628 26.2452C29.9958 26.1592 30.046 26.0809 30.1103 26.015C30.9942 25.0223 31.8761 24.0286 32.756 23.034C32.787 23 32.809 22.95 32.897 22.972Z" fill="#546EE5"/>
</g>
<defs>
<clipPath id="clip0_17_2">
<rect width="187.37" height="40" fill="white"/>
</clipPath>
</defs>
</svg>
