<svg xmlns="http://www.w3.org/2000/svg" width="153" height="40" viewBox="0 0 153 40">
  <g id="icon" transform="translate(-26 -73)">
    <g id="text">
      <text id="CineWorld" transform="translate(126 100)" fill="#546ee5" font-size="19" font-family="Poppins-BoldItalic, Poppins" font-weight="700" font-style="italic"><tspan x="-51.661" y="0">CineWorld</tspan></text>
    </g>
    <g id="app_logo" data-name="app logo" transform="translate(26 73)">
      <g id="Layer_1" data-name="Layer 1">
        <path id="Path_1694" data-name="Path 1694" d="M24.057,16.634a10.143,10.143,0,0,1,1.542.731,7.236,7.236,0,0,1,3.381,5.145c.063.326.121.655.151.985a.558.558,0,0,1-.583.689c-1.245.017-2.49.012-3.735,0a.552.552,0,0,1-.581-.514c-.019-.121-.053-.24-.075-.361a2.432,2.432,0,0,0-1.869-1.971,16.643,16.643,0,0,0-4.112-.644,56.194,56.194,0,0,0-7.649.061,13.4,13.4,0,0,0-2.109.347,2.713,2.713,0,0,0-2.153,2.215,16.692,16.692,0,0,0-.371,3.447,23.906,23.906,0,0,0,.3,5.083,7.1,7.1,0,0,0,.326,1.093,2.769,2.769,0,0,0,2.325,1.645,9.331,9.331,0,0,0,1.719.226c.308.007.39.1.351.411-.122.988-.206,1.98-.308,2.969.167.037.23-.075.308-.139,1.234-.95,2.457-1.9,3.678-2.858a1.118,1.118,0,0,1,.737-.255,34.6,34.6,0,0,0,5.638-.351,8.944,8.944,0,0,0,1.748-.463,2.081,2.081,0,0,0,1.4-1.624c.04-.206.1-.411.131-.617a.559.559,0,0,1,.606-.523q1.832-.007,3.662,0c.479,0,.68.233.625.743-.378,3.6-2.024,6.018-5.749,7.061a24.98,24.98,0,0,1-5.958.757,68.338,68.338,0,0,1-7.169-.092,11.815,11.815,0,0,1-5.108-1.31,7.633,7.633,0,0,1-3.614-5.088,24.925,24.925,0,0,1-.536-6.5,20.769,20.769,0,0,1,.577-5.052A7.425,7.425,0,0,1,5.46,16.872a1.028,1.028,0,0,0,.116-.1,6.933,6.933,0,0,1-4.144-2.578A6.737,6.737,0,0,1,0,9.545,6.96,6.96,0,0,1,5.3,3.223a7.038,7.038,0,0,1,8.122,4.2A8.461,8.461,0,0,1,16.28,2.06,8.171,8.171,0,0,1,21.972-.022,8.386,8.386,0,0,1,30.16,6.912,8.513,8.513,0,0,1,24.057,16.634ZM19.872,8.409a1.963,1.963,0,1,0,1.98-1.946,1.963,1.963,0,0,0-1.98,1.946Zm-12.979,3.4A1.84,1.84,0,1,0,5.086,9.92,1.859,1.859,0,0,0,6.893,11.812Zm10.317,3.77a8.932,8.932,0,0,1-3.434-4.493,7.108,7.108,0,0,1-2.879,4.58c2.183-.087,4.24-.139,6.313-.087Z" transform="translate(0.014 0.024)" fill="#546ee5"/>
        <path id="Path_1695" data-name="Path 1695" d="M293.977,223.372v10.05l-1.53-1.722c-.4-.45-.8-.907-1.2-1.351a.84.84,0,0,1-.249-.625c.016-.937.012-1.873,0-2.809a.678.678,0,0,1,.192-.5q1.326-1.489,2.646-2.981C293.867,223.4,293.889,223.35,293.977,223.372Z" transform="translate(-261.077 -200.4)" fill="#546ee5"/>
      </g>
    </g>
  </g>
</svg>
