<svg xmlns="http://www.w3.org/2000/svg" width="165" height="174.518" viewBox="0 0 165 174.518">
  <g id="Group_79" data-name="Group 79" transform="translate(-90 -242.482)">
    <g id="text" transform="translate(46 306)">
      <text id="CineWorld" transform="translate(126 100)" fill="#546ee5" font-size="30" font-family="Poppins-BoldItalic, Poppins" font-weight="700" font-style="italic"><tspan x="-81.57" y="0">CineWorld</tspan></text>
    </g>
    <g id="app_logo" data-name="app logo" transform="translate(130 242.482)">
      <g id="Layer_1" data-name="Layer 1">
        <path id="Path_1694" data-name="Path 1694" d="M61.075,42.252a25.741,25.741,0,0,1,3.914,1.855c4.947,2.988,7.538,7.538,8.582,13.057.159.827.308,1.662.384,2.5a1.416,1.416,0,0,1-1.479,1.748c-3.16.044-6.32.031-9.479,0a1.4,1.4,0,0,1-1.474-1.3c-.047-.308-.136-.608-.19-.916-.477-2.714-2.218-4.206-4.744-5A42.239,42.239,0,0,0,46.15,52.556a142.617,142.617,0,0,0-19.413.154,34.009,34.009,0,0,0-5.352.882,6.886,6.886,0,0,0-5.464,5.62,42.365,42.365,0,0,0-.942,8.749,60.673,60.673,0,0,0,.765,12.9,18.022,18.022,0,0,0,.827,2.774c1.025,2.729,3.342,3.629,5.9,4.175a23.682,23.682,0,0,0,4.363.574c.783.018.989.261.89,1.044-.311,2.508-.522,5.025-.783,7.536.423.094.584-.19.783-.352,3.131-2.411,6.236-4.819,9.333-7.254a2.836,2.836,0,0,1,1.871-.647,87.81,87.81,0,0,0,14.309-.89,22.7,22.7,0,0,0,4.436-1.174,5.281,5.281,0,0,0,3.559-4.123c.1-.522.248-1.044.331-1.566A1.418,1.418,0,0,1,63.1,79.63q4.65-.018,9.294,0c1.216,0,1.725.592,1.586,1.887-.96,9.132-5.138,15.275-14.591,17.92a63.4,63.4,0,0,1-15.121,1.92,173.439,173.439,0,0,1-18.194-.232c-4.514-.326-8.945-1.044-12.963-3.324C8.045,94.931,5.326,90.37,3.94,84.888c-1.37-5.419-1.435-10.959-1.359-16.5A52.711,52.711,0,0,1,4.045,55.565c1.49-5.628,4.556-10.02,9.834-12.707a2.61,2.61,0,0,0,.295-.261A17.6,17.6,0,0,1,3.656,36.053,17.1,17.1,0,0,1,.029,24.261,17.665,17.665,0,0,1,13.475,8.217,17.863,17.863,0,0,1,34.088,18.889,21.474,21.474,0,0,1,41.339,5.266,20.737,20.737,0,0,1,55.784-.018a21.282,21.282,0,0,1,20.783,17.6A21.607,21.607,0,0,1,61.075,42.252ZM50.456,21.378A4.981,4.981,0,1,0,55.48,16.44a4.981,4.981,0,0,0-5.024,4.938ZM17.516,30.015a4.671,4.671,0,1,0-4.587-4.8A4.718,4.718,0,0,0,17.516,30.015ZM43.7,39.583a22.669,22.669,0,0,1-8.715-11.4A18.04,18.04,0,0,1,27.679,39.8c5.539-.222,10.761-.352,16.021-.222Z" transform="translate(0.014 0.024)" fill="#546ee5"/>
        <path id="Path_1695" data-name="Path 1695" d="M298.564,223.381v25.506l-3.883-4.371c-1.015-1.143-2.02-2.3-3.053-3.429A2.132,2.132,0,0,1,291,239.5c.042-2.377.031-4.754,0-7.129a1.722,1.722,0,0,1,.488-1.258q3.366-3.778,6.716-7.567C298.284,223.456,298.339,223.323,298.564,223.381Z" transform="translate(-215.063 -165.078)" fill="#546ee5"/>
      </g>
    </g>
  </g>
</svg>
